<svg version="1.1" xmlns="http://www.w3.org/2000/svg" width="512" height="512">
<path d="M0 0 C53.46 0 106.92 0 162 0 C162 47.19 162 94.38 162 143 C224.04 143 286.08 143 350 143 C350 95.81 350 48.62 350 0 C403.46 0 456.92 0 512 0 C512 94.38 512 188.76 512 286 C343.04 286 174.08 286 0 286 C0 191.62 0 97.24 0 0 Z " fill="#000000" transform="translate(0,226)"/>
<path d="M0 0 C62.7 0 125.4 0 190 0 C190 47.19 190 94.38 190 143 C127.3 143 64.6 143 0 143 C0 95.81 0 48.62 0 0 Z " fill="#000000" transform="translate(161,0)"/>
</svg>
